# xmcd CD database file
#
# Track frame offsets:
#	183
#	15000
#	32483
#	51343
#	74293
#	86510
#	103515
#	119858
#	133723
#	161230
#
# Disc length: 2442 seconds
#
# Revision: 7
# Processed by: cddbd v1.5.2PL0 Copyright (c) Steve Scherf et al.
# Submitted via: CDex 1.70beta2
#
DISCID=8109880a
DTITLE=Nicki - Ois Easy
DYEAR=1995
DGENRE=Pop
TTITLE0=Immer Nur Bei Dir
TTITLE1=Doch Irgendwann
TTITLE2=Doch Was Kommt Dann?
TTITLE3=So Schwer War's No Nie
TTITLE4='S Fangt Scho Moi Wieder Guad O
TTITLE5=Des Was I Brauch
TTITLE6='S War Ned Immer So
TTITLE7=I Geb Di Nimmer Her
TTITLE8=Der Erste Traum
TTITLE9=Es Is Besser
EXTD=YEAR: 1995
EXTT0=
EXTT1=
EXTT2=
EXTT3=
EXTT4=
EXTT5=
EXTT6=
EXTT7=
EXTT8=
EXTT9=
PLAYORDER=
